<svg width="401" height="48" viewBox="0 0 401 48" fill="none" xmlns="http://www.w3.org/2000/svg">
<path d="M0.608 47V1.688H6.112V25.24L15.52 15.512L28.576 1.688H35.68L17.376 21.144L37.152 47H30.304L13.536 24.92L6.112 32.6V47H0.608ZM51.3345 47.832C43.8465 47.832 39.6225 43.544 39.6225 37.528C39.6225 31.384 43.8465 27.16 51.3345 27.16H62.5985V25.368C62.5985 21.464 60.0385 18.52 55.1745 18.52H53.7025C49.4145 18.52 46.7265 20.76 46.0865 23.896H40.7105C41.7985 17.112 46.7905 13.656 53.8945 13.656H54.7905C63.6225 13.656 67.7825 18.584 67.7825 26.456V38.232C67.7825 41.176 68.6145 42.328 70.7905 42.328H72.3905V47H69.7025C66.4385 47 64.6465 45.4 63.8785 43.288C62.0865 46.296 58.7585 47.832 54.9185 47.832H51.3345ZM54.3425 43.096C59.0785 43.096 62.5985 40.344 62.5985 35.288V31.768H52.1025C47.4305 31.768 44.9985 34.2 44.9985 37.4C44.9985 40.6 47.4305 43.096 52.1025 43.096H54.3425ZM76.203 26.84C76.203 18.52 81.067 13.656 89.323 13.656H91.307C99.563 13.656 104.491 18.52 104.491 26.84V47H99.179V26.968C99.179 21.912 96.171 18.84 91.115 18.84H89.515C84.523 18.84 81.515 21.912 81.515 26.968V47H76.203V26.84Z" fill="#A8F961"/>
<path d="M127.526 47.832C118.182 47.832 111.27 40.92 111.27 31.576V17.112C111.27 7.768 118.182 0.855999 127.526 0.855999H131.878C142.118 0.855999 148.07 8.536 148.07 16.792H142.566C142.438 10.392 138.086 6.296 131.686 6.296H127.846C121.19 6.296 116.838 10.648 116.838 17.24V31.256C116.838 37.912 121.19 42.328 127.846 42.328H131.686C138.278 42.328 142.566 38.04 142.566 31.576H148.134C148.134 40.664 141.734 47.832 131.878 47.832H127.526ZM164.397 47.832C156.909 47.832 152.685 43.544 152.685 37.528C152.685 31.384 156.909 27.16 164.397 27.16H175.661V25.368C175.661 21.464 173.101 18.52 168.237 18.52H166.765C162.477 18.52 159.789 20.76 159.149 23.896H153.773C154.861 17.112 159.853 13.656 166.957 13.656H167.853C176.685 13.656 180.845 18.584 180.845 26.456V38.232C180.845 41.176 181.677 42.328 183.853 42.328H185.453V47H182.765C179.501 47 177.709 45.4 176.941 43.288C175.149 46.296 171.821 47.832 167.981 47.832H164.397ZM167.405 43.096C172.141 43.096 175.661 40.344 175.661 35.288V31.768H165.165C160.493 31.768 158.061 34.2 158.061 37.4C158.061 40.6 160.493 43.096 165.165 43.096H167.405ZM189.019 1.688H194.331V36.312C194.331 40.024 196.379 41.944 200.475 41.944H203.291V47H199.387C192.667 47 189.019 43.672 189.019 36.056V1.688ZM218.75 47.832C210.302 47.832 205.31 42.712 205.31 34.392V27.096C205.31 18.712 210.302 13.656 218.75 13.656H220.606C228.606 13.656 233.534 18.2 233.982 25.944H228.606C228.222 21.528 225.214 18.776 220.542 18.776H218.814C213.758 18.776 210.686 21.976 210.686 27.16V34.264C210.686 39.512 213.758 42.648 218.814 42.648H220.542C225.278 42.648 228.286 39.896 228.606 35.416H233.982C233.534 43.16 228.67 47.832 220.606 47.832H218.75ZM252.951 47.832C244.567 47.832 239.703 42.904 239.703 34.584V14.424H245.015V34.52C245.015 39.576 248.023 42.648 252.887 42.648H254.487C259.351 42.648 262.423 39.576 262.423 34.52V14.424H267.735V34.584C267.735 42.904 262.807 47.832 254.487 47.832H252.951ZM274.644 1.688H279.956V36.312C279.956 40.024 282.004 41.944 286.1 41.944H288.916V47H285.012C278.292 47 274.644 43.672 274.644 36.056V1.688ZM303.085 47.832C295.597 47.832 291.373 43.544 291.373 37.528C291.373 31.384 295.597 27.16 303.085 27.16H314.349V25.368C314.349 21.464 311.789 18.52 306.925 18.52H305.453C301.165 18.52 298.477 20.76 297.837 23.896H292.461C293.549 17.112 298.541 13.656 305.645 13.656H306.541C315.373 13.656 319.533 18.584 319.533 26.456V38.232C319.533 41.176 320.365 42.328 322.541 42.328H324.141V47H321.453C318.189 47 316.397 45.4 315.629 43.288C313.837 46.296 310.509 47.832 306.669 47.832H303.085ZM306.093 43.096C310.829 43.096 314.349 40.344 314.349 35.288V31.768H303.853C299.181 31.768 296.749 34.2 296.749 37.4C296.749 40.6 299.181 43.096 303.853 43.096H306.093ZM327.453 6.232H332.765V14.424H343.517V19.352H332.765V34.136C332.765 39.704 336.477 42.008 341.213 42.008H344.413V47H340.445C332.637 47 327.453 42.648 327.453 34.584V6.232ZM360.314 47.832C351.802 47.832 346.81 42.712 346.81 34.392V27.096C346.81 18.712 351.802 13.656 360.314 13.656H362.426C370.874 13.656 375.866 18.712 375.866 27.096V34.392C375.866 42.712 370.874 47.832 362.426 47.832H360.314ZM362.298 42.648C367.418 42.648 370.49 39.512 370.49 34.264V27.16C370.49 21.976 367.418 18.776 362.298 18.776H360.378C355.258 18.776 352.186 21.976 352.186 27.16V34.264C352.186 39.512 355.258 42.648 360.378 42.648H362.298ZM400.004 14.424V19.544H395.332C390.532 19.544 387.14 23.064 387.14 28.056V47H381.828V27.48C381.828 19.288 387.012 14.424 395.204 14.424H400.004Z" fill="#F5F5F5"/>
</svg>
